<svg width="22" height="22" fill="none" xmlns="http://www.w3.org/2000/svg"><path d="M21.288 10.953c0-.002-.002-.002-.002-.005l-.042-.049c-.003-.002-.005-.007-.01-.01l-.051-.055-9.056-9.05-.607-.607a.738.738 0 00-1.041 0L.816 10.836a1.491 1.491 0 00-.375.623l-.014.05-.007.025-.007.028a.363.363 0 00-.01.05c0 .002 0 .007-.002.01a1.29 1.29 0 00-.024.212v.078c0 .011 0 .023.003.035 0 .012 0 .021.002.033l.002.035c0 .014.003.028.005.042l.002.021.007.059v.002a1.52 1.52 0 001.5 1.254h.997v7.638h16.211v-7.633h1.017c.202 0 .397-.04.575-.115a1.491 1.491 0 00.926-1.387c0-.345-.118-.676-.336-.943zm-8.976 8.39H9.687v-4.78h2.625v4.78zm5.107-7.633v7.634h-3.607V14a.937.937 0 00-.938-.938h-3.75a.937.937 0 00-.937.938v5.344H4.58V11.71H2.33l8.672-8.665.541.542 8.128 8.123H17.42z" fill="#3B945E"/></svg>