<svg width="18" height="22" fill="none" xmlns="http://www.w3.org/2000/svg"><path d="M3.134 13.564c-.22.342-.398.71-.527 1.092h1.987v-2.561a4.987 4.987 0 00-1.46 1.47zm10.273-1.47v2.562h1.988a4.96 4.96 0 00-1.988-2.562zm-1.5-5.622L9.001 3.027 6.094 6.472v8.184h5.813V6.472zM9.001 9.5a1.125 1.125 0 010-2.25A1.125 1.125 0 019 9.5z" fill="3B945E"/><path d="M17.25 16.25a6.56 6.56 0 00-3.75-5.927V6.437c0-.354-.124-.696-.354-.966L9.574 1.236a.749.749 0 00-1.148 0L4.854 5.47a1.5 1.5 0 00-.354.966v3.886A6.56 6.56 0 00.75 16.25h3.668a1.81 1.81 0 00-.082.558 2.276 2.276 0 001.512 2.142A3.417 3.417 0 009 21.031a3.41 3.41 0 001.908-.581c.553-.37.982-.888 1.242-1.5.396-.14.746-.388 1.01-.715.324-.404.5-.907.502-1.425 0-.197-.026-.384-.073-.558l3.661-.002zM4.594 14.656H2.606a4.987 4.987 0 011.987-2.562v2.562zm1.5-4.333V6.472L9 3.027l2.906 3.445v8.184H6.094v-4.333zm5.627 7.057a.632.632 0 01-.4.08l-.458-.057-.065.455A1.825 1.825 0 019 19.416c-.898 0-1.671-.67-1.798-1.558l-.065-.457-.457.058a.66.66 0 01-.731-.654c0-.248.138-.454.342-.557h5.42a.619.619 0 01.343.557.665.665 0 01-.333.575zm1.685-2.724v-2.562a4.958 4.958 0 011.988 2.562h-1.988z" fill="#3B945E"/><path d="M7.875 8.375a1.125 1.125 0 102.25 0 1.125 1.125 0 00-2.25 0z" fill="#3B945E"/></svg>