<svg width="20" height="20" fill="none" xmlns="http://www.w3.org/2000/svg"><path d="M18.625 5.266h-3.46a3.226 3.226 0 00.507-1.735A3.238 3.238 0 0012.437.297 3.23 3.23 0 0010 1.407 3.23 3.23 0 007.562.298 3.238 3.238 0 004.329 3.53c0 .638.185 1.233.506 1.735h-3.46a.75.75 0 00-.75.75v4.687c0 .103.084.188.188.188h.937v8.062c0 .415.335.75.75.75h15a.75.75 0 00.75-.75V10.89h.938a.188.188 0 00.187-.188V6.016a.75.75 0 00-.75-.75zM9.203 18.109h-5.86v-7.218h5.86v7.218zm0-8.812H2.22V6.859h6.984v2.438zm0-4.125h-1.64a1.642 1.642 0 01-1.641-1.64c0-.905.736-1.641 1.64-1.641.905 0 1.641.736 1.641 1.64v1.64zm1.594-1.64c0-.905.736-1.641 1.64-1.641.905 0 1.641.736 1.641 1.64 0 .905-.736 1.64-1.64 1.64h-1.641v-1.64zm5.86 14.577h-5.86v-7.218h5.86v7.218zm1.124-8.812h-6.984V6.859h6.984v2.438z" fill="#3B945E"/></svg>