<svg width="24" height="24" fill="#3b945e" xmlns="http://www.w3.org/2000/svg"><path d="M18.172 5.834a8.663 8.663 0 00-2.79-1.875 8.676 8.676 0 00-3.379-.678h-.04a8.653 8.653 0 00-6.16 2.576 8.665 8.665 0 00-2.52 6.183 8.75 8.75 0 001.019 4.057l.105.197v3.3h3.3l.197.105a8.75 8.75 0 004.057 1.02h.04c2.32 0 4.5-.896 6.143-2.522a8.685 8.685 0 002.58-6.157 8.683 8.683 0 00-2.552-6.206zM7.313 13.125a1.125 1.125 0 010-2.25 1.125 1.125 0 010 2.25zm4.688 0a1.125 1.125 0 010-2.25 1.125 1.125 0 010 2.25zm4.687 0a1.125 1.125 0 010-2.25 1.125 1.125 0 010 2.25z" fill="#fff"/><path d="M15.563 12a1.125 1.125 0 102.25 0 1.125 1.125 0 00-2.25 0zm-9.376 0a1.125 1.125 0 102.25 0 1.125 1.125 0 00-2.25 0z"/><path d="M21.685 7.931A10.503 10.503 0 0012 1.5h-.047A10.475 10.475 0 001.5 12.05a10.533 10.533 0 001.125 4.684v3.563a1.078 1.078 0 001.078 1.078h3.565a10.533 10.533 0 004.685 1.125h.05c1.403 0 2.765-.272 4.047-.804a10.417 10.417 0 003.347-2.231 10.475 10.475 0 003.103-7.418 10.46 10.46 0 00-.815-4.116zm-3.542 10.266A8.673 8.673 0 0112 20.719h-.04a8.75 8.75 0 01-4.057-1.02l-.197-.105h-3.3v-3.3l-.105-.197a8.75 8.75 0 01-1.02-4.057 8.665 8.665 0 012.522-6.183 8.653 8.653 0 016.16-2.576h.04c1.171 0 2.308.228 3.38.678a8.664 8.664 0 012.788 1.875 8.683 8.683 0 012.552 6.206 8.685 8.685 0 01-2.58 6.157z"/><path d="M10.875 12a1.125 1.125 0 102.25 0 1.125 1.125 0 00-2.25 0z"/></svg>