<svg width="20" height="20" fill="none" xmlns="http://www.w3.org/2000/svg"><path d="M18.344 1.75h-2.157V.812A.188.188 0 0016 .625H4a.188.188 0 00-.188.188v.937H1.656A1.031 1.031 0 00.625 2.781V6.25a3.85 3.85 0 003.24 3.797 6.007 6.007 0 005.291 5.168v2.465H4.562a.75.75 0 00-.75.75v.758c0 .103.085.187.188.187h12a.188.188 0 00.188-.188v-.757a.75.75 0 00-.75-.75h-4.594v-2.465a6.007 6.007 0 005.292-5.168 3.85 3.85 0 003.239-3.797V2.781a1.032 1.032 0 00-1.031-1.031zM3.812 8.303a2.156 2.156 0 01-1.5-2.053V3.437h1.5v4.866zM14.5 9.25a4.28 4.28 0 01-1.263 3.05 4.283 4.283 0 01-3.05 1.262h-.374a4.28 4.28 0 01-3.05-1.263A4.283 4.283 0 015.5 9.25V2.312h9V9.25zm3.188-3c0 .96-.631 1.777-1.5 2.053V3.437h1.5V6.25z" fill="#3B945E"/></svg>